<?xml version="1.0" encoding="UTF-8" standalone="no"?>
<!DOCTYPE svg PUBLIC "-//W3C//DTD SVG 1.1//EN" "http://www.w3.org/Graphics/SVG/1.1/DTD/svg11.dtd">
<svg width="100%" height="100%" viewBox="0 0 691 220" version="1.1" xmlns="http://www.w3.org/2000/svg" xmlns:xlink="http://www.w3.org/1999/xlink" xml:space="preserve" xmlns:serif="http://www.serif.com/" style="fill-rule:evenodd;clip-rule:evenodd;stroke-linejoin:round;stroke-miterlimit:2;">
    <g transform="matrix(1,0,0,1,-1503.88,-474.852)">
        <g transform="matrix(4.16667,0,0,4.16667,0,0)">
            <g transform="matrix(1,0,0,1,409.29,159.342)">
                <path d="M0,-17.714L-3.764,0L3.863,0C7.529,0 10.013,-1.599 10.752,-5.068C11.17,-7.11 10.481,-8.439 9.103,-9.128C10.481,-9.865 11.539,-11.096 11.908,-12.818C12.572,-15.992 10.973,-17.714 7.529,-17.714L0,-17.714ZM3.174,-10.628L3.986,-14.466L5.979,-14.466C7.061,-14.466 7.504,-13.802 7.233,-12.547C6.987,-11.342 6.249,-10.628 5.167,-10.628L3.174,-10.628ZM1.599,-3.272L2.46,-7.307L4.527,-7.307C5.831,-7.307 6.397,-6.766 6.102,-5.29C5.782,-3.862 4.97,-3.272 3.666,-3.272L1.599,-3.272Z" style="fill:rgb(35,31,32);fill-rule:nonzero;"/>
            </g>
        </g>
        <g transform="matrix(4.16667,0,0,4.16667,0,0)">
            <g transform="matrix(1,0,0,1,430.35,165.297)">
                <path d="M0,-18.871L-1.993,-9.596C-2.436,-9.276 -2.928,-9.104 -3.346,-9.104C-4.183,-9.104 -4.429,-9.546 -4.281,-10.285L-2.436,-18.871C-2.436,-18.871 -3.174,-19.068 -4.65,-19.068C-6.126,-19.068 -6.913,-18.871 -6.913,-18.871L-8.808,-10.014C-9.275,-7.849 -8.513,-5.659 -6.028,-5.659C-4.773,-5.659 -3.617,-5.905 -2.583,-6.668L-2.633,-6.397C-3.248,-3.051 -4.773,-3.1 -6.249,-3.1C-7.651,-3.1 -8.783,-3.666 -8.783,-3.666C-9.644,-2.854 -10.186,-1.92 -10.456,-0.812C-10.456,-0.812 -8.734,0.197 -5.979,0.197C-2.091,0.197 0.738,-1.723 1.796,-6.397L4.453,-18.871C4.453,-18.871 3.69,-19.068 2.239,-19.068C0.812,-19.068 0,-18.871 0,-18.871" style="fill:rgb(35,31,32);fill-rule:nonzero;"/>
            </g>
        </g>
        <g transform="matrix(4.16667,0,0,4.16667,0,0)">
            <g transform="matrix(1,0,0,1,441.692,153.438)">
                <path d="M0,-3.912L2.387,-3.912C2.387,-3.912 2.682,-4.552 2.879,-5.487C3.1,-6.471 3.051,-7.037 3.051,-7.037L0.664,-7.037L1.279,-9.915C-0.221,-10.063 -2.091,-9.841 -3.346,-9.3L-3.813,-7.037L-5.511,-7.037C-5.511,-7.037 -5.806,-6.471 -6.028,-5.462C-6.225,-4.527 -6.176,-3.912 -6.176,-3.912L-4.478,-3.912L-5.585,1.255C-6.348,4.822 -5.29,6.151 -1.796,6.151C-0.886,6.151 0,6.052 0.837,5.855C0.837,5.855 1.132,5.339 1.304,4.478C1.55,3.297 1.329,2.731 1.329,2.731C1.329,2.731 0.787,2.854 0.197,2.854C-0.861,2.854 -1.378,2.509 -1.082,1.181L0,-3.912Z" style="fill:rgb(35,31,32);fill-rule:nonzero;"/>
            </g>
        </g>
        <g transform="matrix(4.16667,0,0,4.16667,0,0)">
            <g transform="matrix(1,0,0,1,455.592,151.519)">
                <path d="M0,2.534C0,2.534 0.467,1.402 0.836,-0.271C1.575,-3.814 -0.32,-5.536 -3.469,-5.536C-7.159,-5.536 -9.694,-3.691 -10.678,0.886C-11.686,5.585 -10.013,8.07 -5.831,8.07C-2.756,8.07 -1.255,6.864 -1.255,6.864C-1.058,5.733 -1.452,4.453 -1.993,3.912C-1.993,3.912 -3.125,4.502 -4.527,4.502C-5.782,4.502 -6.643,4.084 -6.397,2.534L0,2.534ZM-3.026,-0.738C-3.075,-0.492 -3.125,-0.246 -3.198,0L-5.905,0C-5.388,-1.993 -4.65,-2.436 -3.887,-2.436C-3.051,-2.436 -2.829,-1.722 -3.026,-0.738" style="fill:rgb(35,31,32);fill-rule:nonzero;"/>
            </g>
        </g>
        <g transform="matrix(4.16667,0,0,4.16667,0,0)">
            <g transform="matrix(1,0,0,1,462.654,147.803)">
                <path d="M0,5.364L2.337,5.364C6.175,5.364 8.685,3.691 9.472,-0.024C10.259,-3.739 8.636,-6.175 4.798,-6.175L-2.214,-6.175L-5.929,11.318C-5.929,11.318 -5.117,11.539 -3.617,11.539C-2.165,11.539 -1.255,11.318 -1.255,11.318L0,5.364ZM0.763,1.821L1.722,-2.657L3.371,-2.657C4.601,-2.657 5.167,-1.943 4.847,-0.418C4.527,1.083 3.641,1.821 2.411,1.821L0.763,1.821Z" style="fill:rgb(35,31,32);fill-rule:nonzero;"/>
            </g>
        </g>
        <g transform="matrix(4.16667,0,0,4.16667,0,0)">
            <g transform="matrix(1,0,0,1,481.401,159.17)">
                <path d="M0,-12.769L-0.418,-11.785C-0.861,-12.72 -1.698,-13.187 -3.174,-13.187C-6.102,-13.187 -7.947,-11.76 -9.103,-6.914C-10.309,-1.895 -8.784,0.418 -5.93,0.418C-4.453,0.418 -3.445,-0.148 -2.608,-1.009L-2.608,-0.025C-2.608,-0.025 -1.944,0.172 -0.664,0.172C0.59,0.172 1.476,-0.025 1.476,-0.025L4.182,-12.744C4.182,-12.744 3.42,-12.941 2.066,-12.941C0.689,-12.941 0,-12.769 0,-12.769M-1.255,-8.217L-2.042,-4.478C-2.288,-3.641 -2.854,-2.977 -3.715,-2.977C-4.847,-2.977 -5.167,-3.74 -4.601,-6.298C-3.986,-9.029 -3.395,-9.792 -2.263,-9.792C-1.427,-9.792 -1.157,-9.103 -1.255,-8.217" style="fill:rgb(35,31,32);fill-rule:nonzero;"/>
            </g>
        </g>
        <g transform="matrix(4.16667,0,0,4.16667,0,0)">
            <g transform="matrix(1,0,0,1,498.328,155.282)">
                <path d="M0,-5.24C0.566,-7.848 -0.344,-9.3 -2.83,-9.3C-4.084,-9.3 -5.314,-8.684 -6.348,-7.922L-6.348,-8.857C-6.348,-8.857 -6.889,-9.053 -8.316,-9.053C-9.792,-9.053 -10.579,-8.857 -10.579,-8.857L-13.286,3.863C-13.286,3.863 -12.548,4.06 -11.096,4.06C-9.669,4.06 -8.832,3.863 -8.832,3.863L-6.864,-5.412C-6.397,-5.732 -5.93,-5.904 -5.511,-5.904C-4.675,-5.904 -4.429,-5.461 -4.576,-4.699L-6.397,3.863C-6.397,3.863 -5.708,4.06 -4.207,4.06C-2.731,4.06 -1.919,3.863 -1.919,3.863L0,-5.24Z" style="fill:rgb(35,31,32);fill-rule:nonzero;"/>
            </g>
        </g>
        <g transform="matrix(4.16667,0,0,4.16667,0,0)">
            <g transform="matrix(1,0,0,1,509.522,159.366)">
                <path d="M0,-18.255L-1.28,-12.129C-1.845,-12.916 -2.707,-13.384 -4.01,-13.384C-6.938,-13.384 -8.931,-11.858 -9.989,-6.839C-11.047,-1.82 -9.645,0.222 -6.889,0.222C-5.413,0.222 -4.281,-0.344 -3.445,-1.205L-3.445,-0.221C-3.445,-0.221 -2.78,-0.024 -1.501,-0.024C-0.246,-0.024 0.639,-0.221 0.639,-0.221L4.478,-18.28C4.478,-18.28 3.641,-18.477 2.288,-18.477C0.91,-18.477 0,-18.255 0,-18.255M-2.091,-8.414L-2.879,-4.674C-3.125,-3.838 -3.69,-3.173 -4.552,-3.173C-5.684,-3.173 -6.028,-3.985 -5.462,-6.495C-4.847,-9.226 -4.232,-9.989 -3.1,-9.989C-2.263,-9.989 -1.993,-9.299 -2.091,-8.414" style="fill:rgb(35,31,32);fill-rule:nonzero;"/>
            </g>
        </g>
        <g transform="matrix(4.16667,0,0,4.16667,0,0)">
            <g transform="matrix(1,0,0,1,522.513,159.17)">
                <path d="M0,-12.769L-0.418,-11.785C-0.861,-12.72 -1.698,-13.187 -3.174,-13.187C-6.102,-13.187 -7.947,-11.76 -9.103,-6.914C-10.309,-1.895 -8.783,0.418 -5.93,0.418C-4.453,0.418 -3.445,-0.148 -2.608,-1.009L-2.608,-0.025C-2.608,-0.025 -1.944,0.172 -0.664,0.172C0.59,0.172 1.476,-0.025 1.476,-0.025L4.182,-12.744C4.182,-12.744 3.42,-12.941 2.066,-12.941C0.689,-12.941 0,-12.769 0,-12.769M-1.255,-8.217L-2.042,-4.478C-2.288,-3.641 -2.854,-2.977 -3.715,-2.977C-4.847,-2.977 -5.167,-3.74 -4.601,-6.298C-3.986,-9.029 -3.395,-9.792 -2.263,-9.792C-1.427,-9.792 -1.156,-9.103 -1.255,-8.217" style="fill:rgb(35,31,32);fill-rule:nonzero;"/>
            </g>
        </g>
        <g transform="matrix(4.16667,0,0,4.16667,0,0)">
            <g transform="matrix(1,0,0,1,373.115,148.694)">
                <path d="M0,-19.019C-6.637,-16.186 -17.406,-0.552 -3.52,9.842C-0.803,11.876 4.285,12.273 8.249,10.97C13.519,9.238 21.338,2.84 23.203,-3.716C24.633,-4.572 25.397,-5.912 26.041,-7.663C26.774,-9.655 27.351,-12.179 27.58,-14.331C27.809,-16.483 27.69,-18.263 27.317,-19.914C26.944,-21.564 26.318,-23.086 25.448,-24.437C24.577,-25.788 23.463,-26.969 22.386,-27.93C21.309,-28.892 20.268,-29.634 19.236,-30.171C18.202,-30.708 17.177,-31.04 16.158,-31.166C15.139,-31.292 14.128,-31.212 12.857,-31.021C11.584,-30.829 10.052,-30.526 8.474,-29.625C6.896,-28.725 5.273,-27.228 4.211,-25.198C3.485,-23.811 3.021,-22.175 2.921,-20.314C2.273,-20.015 1.347,-19.594 0,-19.019" style="fill:white;"/>
            </g>
        </g>
        <g transform="matrix(4.16667,0,0,4.16667,0,0)">
            <g transform="matrix(1,0,0,1,381.344,117.178)">
                <path d="M0,46.176C10.725,46.2 19.331,46.932 19.331,47.832C19.331,48.746 10.435,49.488 -0.54,49.488C-11.515,49.488 -20.412,48.746 -20.412,47.832C-20.412,47.493 -19.191,47.178 -17.098,46.916C-16.932,47.025 -16.759,47.125 -16.58,47.214C-14.655,48.173 -12.32,47.797 -10.759,46.411C-9.919,46.369 -9.038,46.332 -8.123,46.301C-7.507,47.216 -6.695,47.986 -5.689,48.381C-3.613,49.197 -1.174,48.311 -0.097,46.361C-0.063,46.301 -0.031,46.239 0,46.176M-10.958,23.573C-10.971,24.865 -10.924,26.408 -10.274,27.994C-9.35,30.251 -6.569,32.673 -4.329,33.541C-2.73,34.161 -0.686,34.374 0.734,33.497C2.154,32.62 2.951,30.653 2.147,28.867C1.457,27.332 -0.417,25.93 -2.342,25.093C-2.534,24.256 -2.815,23.432 -3.157,22.695C-4.143,20.566 -5.627,19.156 -6.983,18.86C-8.34,18.564 -9.568,19.382 -10.22,20.312C-10.871,21.241 -10.945,22.282 -10.958,23.573M13.036,4.086C12.932,4.198 12.901,4.281 12.914,4.42C12.927,4.559 12.984,4.754 13.099,4.893C13.215,5.032 13.388,5.116 13.576,5.121C13.764,5.126 13.966,5.051 14.102,4.913C14.237,4.774 14.307,4.572 14.194,4.358C14.082,4.145 13.787,3.921 13.552,3.879C13.316,3.836 13.139,3.975 13.036,4.086M2.129,7.434C2.024,7.546 1.993,7.631 2.006,7.771C2.019,7.912 2.077,8.108 2.193,8.249C2.31,8.39 2.485,8.475 2.675,8.48C2.865,8.485 3.07,8.409 3.207,8.269C3.344,8.129 3.414,7.924 3.301,7.709C3.187,7.493 2.889,7.267 2.651,7.224C2.413,7.181 2.234,7.321 2.129,7.434M10.606,2.131C10.103,2.946 9.675,4.086 9.74,5.084C9.818,6.276 10.601,7.261 11.613,7.902C12.625,8.542 13.866,8.837 14.805,8.418C15.368,8.166 15.822,7.658 16.139,7.061C16.255,7.224 16.368,7.389 16.476,7.557C16.884,8.19 17.233,8.861 17.524,9.563C17.815,10.267 18.049,11.013 18.226,11.796C18.402,12.576 18.519,13.385 18.564,14.251C18.609,15.12 18.582,16.057 18.472,17.09C18.36,18.141 18.163,19.281 17.906,20.397C17.647,21.517 17.333,22.603 16.986,23.546C16.649,24.463 16.28,25.253 15.792,25.895C15.334,26.498 14.76,26.977 13.986,27.32C13.137,27.697 12.042,27.922 10.803,27.954C9.616,27.984 8.314,27.835 6.986,27.469C5.544,27.072 4.07,26.423 2.701,25.543C1.436,24.73 0.257,23.715 -0.726,22.513C-1.698,21.325 -2.478,19.955 -3.067,18.535C-3.72,16.962 -4.139,15.333 -4.328,13.824C-4.501,12.441 -4.48,11.167 -4.3,10.01C-4.11,8.792 -3.742,7.694 -3.236,6.727C-3.215,6.687 -3.194,6.648 -3.172,6.608C-3.006,6.572 -2.852,6.522 -2.715,6.459C-2.062,6.162 -1.791,5.595 -1.148,4.801C-0.708,4.258 -0.094,3.609 0.252,2.921C0.396,2.828 0.54,2.741 0.684,2.658C1.409,2.245 2.121,1.969 2.795,1.775C3.48,1.578 4.148,1.461 4.757,1.369L4.759,1.366C5.353,1.276 5.894,1.213 6.419,1.185C6.904,1.16 7.361,1.17 7.821,1.227C8.28,1.284 8.736,1.386 9.19,1.533C9.657,1.684 10.127,1.882 10.601,2.128L10.606,2.131ZM12.328,3.614C12.09,3.923 11.848,4.462 11.878,4.923C11.908,5.383 12.21,5.763 12.601,6.01C12.992,6.258 13.471,6.371 13.833,6.21C14.196,6.048 14.441,5.611 14.52,5.198C14.523,5.184 14.525,5.17 14.527,5.156L14.53,5.14L14.53,5.138L14.533,5.121L14.533,5.119L14.535,5.102L14.535,5.101L14.538,5.082L14.54,5.064L14.542,5.046L14.542,5.045L14.543,5.027L14.543,5.025L14.544,5.009L14.544,5.007L14.546,4.99L14.546,4.988L14.547,4.972L14.547,4.968L14.547,4.954L14.547,4.95L14.547,4.936L14.548,4.931L14.548,4.918L14.548,4.902L14.548,4.9L14.547,4.893L14.547,4.889L14.547,4.877L14.547,4.875L14.547,4.863L14.547,4.856L14.546,4.845L14.545,4.837L14.545,4.828L14.545,4.826L14.544,4.811L14.544,4.81L14.543,4.801L14.542,4.792L14.542,4.788L14.541,4.777L14.541,4.774L14.539,4.764L14.539,4.756L14.537,4.745L14.537,4.744L14.535,4.73L14.535,4.727L14.534,4.721L14.532,4.709L14.532,4.707L14.53,4.696L14.529,4.691L14.528,4.686L14.528,4.683L14.525,4.669L14.525,4.668L14.522,4.654L14.522,4.651L14.519,4.637L14.518,4.633L14.515,4.618L14.514,4.616L14.51,4.601L14.51,4.599L14.506,4.583L14.506,4.581L14.501,4.565L14.501,4.564L14.496,4.547L14.491,4.53L14.491,4.529L14.486,4.513L14.485,4.512L14.48,4.496L14.48,4.494L14.474,4.479L14.473,4.477L14.468,4.462L14.467,4.459L14.462,4.445L14.461,4.442L14.455,4.429L14.455,4.428L14.449,4.413L14.448,4.411L14.442,4.396L14.441,4.395L14.436,4.383L14.434,4.379L14.432,4.373L14.427,4.362L14.426,4.361L14.42,4.348L14.419,4.345L14.416,4.339L14.413,4.334L14.409,4.325L14.405,4.318L14.4,4.308L14.398,4.305L14.394,4.296L14.389,4.288L14.385,4.28L14.383,4.276L14.377,4.266L14.375,4.262L14.368,4.25L14.367,4.248L14.361,4.238L14.357,4.232L14.351,4.221L14.348,4.216L14.34,4.205L14.337,4.2L14.33,4.188L14.327,4.184L14.319,4.172L14.317,4.168L14.308,4.156L14.306,4.153L14.297,4.14L14.294,4.137L14.285,4.124L14.283,4.121L14.273,4.107L14.272,4.106L14.261,4.092L14.26,4.09L14.248,4.076L14.248,4.075L14.236,4.06C13.961,3.722 13.499,3.436 13.15,3.332L13.139,3.328L13.134,3.327L13.128,3.325L13.118,3.322L13.117,3.322L13.102,3.318L13.095,3.316L13.086,3.314L13.084,3.313L13.073,3.311L13.07,3.311L13.062,3.309L13.055,3.307L13.051,3.306L13.041,3.304L13.04,3.304L13.026,3.301L13.025,3.301L13.02,3.3L13.01,3.298L13.009,3.298L13.007,3.298L12.995,3.296L12.989,3.295L12.98,3.294L12.978,3.294L12.969,3.293L12.965,3.292L12.958,3.291L12.951,3.291L12.948,3.291L12.938,3.29L12.937,3.29L12.928,3.289L12.922,3.289L12.919,3.289L12.909,3.288L12.908,3.288L12.899,3.288L12.895,3.288L12.89,3.288L12.881,3.288L12.88,3.288L12.867,3.288L12.857,3.288L12.853,3.289L12.852,3.289L12.842,3.289L12.836,3.29L12.83,3.29L12.824,3.291L12.814,3.292L12.813,3.292L12.805,3.293L12.796,3.294L12.787,3.296L12.778,3.297L12.777,3.297L12.771,3.299L12.769,3.299L12.761,3.3L12.76,3.301L12.751,3.303L12.743,3.305L12.742,3.305L12.734,3.307L12.725,3.309C12.696,3.318 12.668,3.328 12.64,3.341L12.64,3.342L12.632,3.345L12.631,3.346C12.624,3.349 12.616,3.354 12.608,3.358L12.606,3.359L12.598,3.363L12.59,3.368C12.577,3.376 12.563,3.385 12.55,3.394C12.474,3.447 12.401,3.519 12.328,3.614M-0.461,4.988C-1.153,5.73 -1.359,6.287 -1.272,7.213C-1.184,8.14 -0.803,9.435 -0.035,10.364C0.733,11.292 1.888,11.854 3.139,11.885C4.391,11.916 5.74,11.417 6.646,10.494C7.551,9.57 8.014,8.222 7.263,6.801C6.513,5.38 4.551,3.887 2.98,3.603C1.41,3.319 0.232,4.246 -0.461,4.988M1.917,6.862C1.685,7.11 1.616,7.297 1.645,7.607C1.674,7.916 1.802,8.35 2.059,8.661C2.316,8.971 2.702,9.159 3.121,9.169C3.54,9.18 3.991,9.013 4.294,8.704C4.597,8.395 4.751,7.944 4.5,7.469C4.249,6.994 3.593,6.494 3.067,6.399C2.542,6.304 2.148,6.614 1.917,6.862M-19.185,35.999C-19.512,37.51 -19.828,39.33 -19.449,41.347C-19.07,43.364 -17.997,45.578 -16.208,46.469C-14.42,47.359 -11.917,46.928 -10.608,44.984C-10.289,44.509 -10.041,43.945 -9.857,43.324C-9.395,43.488 -8.911,43.627 -8.411,43.74C-7.925,45.344 -6.888,47.015 -5.384,47.606C-3.828,48.217 -1.775,47.674 -0.826,45.958C-0.449,45.277 -0.247,44.41 -0.187,43.472C-0.025,43.425 0.136,43.376 0.294,43.324L0.298,43.325L0.358,43.304L0.36,43.301C3.858,42.132 8.399,39.026 11.711,35.185C12.177,34.644 12.62,34.088 13.033,33.52C13.247,33.674 13.476,33.82 13.72,33.955C14.982,34.654 16.662,35.064 17.945,34.495C19.229,33.926 20.117,32.377 19.65,30.798C19.291,29.58 18.127,28.344 16.802,27.439C16.942,27.287 17.074,27.129 17.199,26.964C17.801,26.172 18.243,25.235 18.638,24.16C19.02,23.121 19.358,21.961 19.628,20.795C19.903,19.602 20.112,18.39 20.23,17.279C20.35,16.16 20.378,15.131 20.327,14.16C20.277,13.185 20.147,12.278 19.95,11.408C19.754,10.537 19.487,9.695 19.153,8.885C18.82,8.08 18.422,7.316 17.961,6.601C17.53,5.932 17.047,5.307 16.541,4.729C15.971,4.079 15.355,3.474 14.743,2.928C14.172,2.418 13.617,1.97 13.076,1.585C12.568,1.223 12.059,0.906 11.549,0.633C11.576,0.139 11.498,-0.349 11.284,-0.808C10.931,-1.565 10.209,-2.244 9.389,-2.681C8.569,-3.118 7.653,-3.312 6.811,-3.166C5.969,-3.02 5.202,-2.534 4.817,-1.975C4.46,-1.454 4.435,-0.869 4.349,-0.356C3.726,-0.259 3.042,-0.132 2.307,0.079C1.63,0.273 0.924,0.535 0.209,0.904C-0.169,0.258 -0.851,-0.299 -1.568,-0.577C-2.653,-0.998 -3.819,-0.779 -4.758,-0.351C-5.697,0.077 -6.41,0.713 -6.88,1.444C-7.349,2.175 -7.577,3 -7.296,3.91C-7.015,4.82 -6.227,5.815 -5.315,6.299C-5.229,6.345 -5.142,6.386 -5.053,6.423C-5.514,7.421 -5.852,8.528 -6.041,9.739C-6.086,10.026 -6.122,10.319 -6.15,10.617C-6.751,10.892 -7.539,11.244 -8.577,11.686C-10.656,12.574 -13.096,14.612 -15.121,17.317C-16.843,19.618 -18.282,22.415 -18.962,25.41C-19.584,28.149 -19.577,31.055 -18.586,33.908C-18.846,34.527 -19.017,35.222 -19.185,35.999M-9.518,41.569C-9.353,40.021 -9.479,38.33 -9.827,36.851C-10.469,34.117 -11.869,32.106 -13.388,31.432C-14.779,30.814 -16.271,31.319 -17.271,32.125C-17.777,30 -17.706,27.855 -17.24,25.807C-16.617,23.061 -15.293,20.491 -13.708,18.372C-11.868,15.915 -9.698,14.083 -7.881,13.308C-7.227,13.028 -6.672,12.786 -6.2,12.575C-6.182,13.051 -6.142,13.539 -6.08,14.038C-5.873,15.697 -5.413,17.487 -4.697,19.212C-4.043,20.786 -3.175,22.31 -2.091,23.635C-0.994,24.975 0.328,26.112 1.751,27.027C3.276,28.007 4.915,28.728 6.516,29.17C8.027,29.586 9.504,29.756 10.848,29.722C11.785,29.698 12.665,29.575 13.455,29.366C12.719,30.978 11.642,32.561 10.373,34.032C7.259,37.644 3.035,40.549 -0.195,41.629L-0.196,41.627L-0.257,41.647L-0.256,41.649C-2.147,42.27 -4.314,42.48 -6.328,42.287C-7.477,42.177 -8.569,41.937 -9.518,41.569M10.252,8.668C10.624,8.58 10.997,8.537 11.275,8.552C11.58,8.568 11.788,8.653 11.933,8.793L11.932,8.793C12.079,8.935 12.149,9.122 12.18,9.343C12.211,9.566 12.205,9.832 12.129,10.092C12.064,10.308 11.951,10.522 11.771,10.706C11.572,10.909 11.293,11.073 10.983,11.174C10.685,11.272 10.355,11.314 10.038,11.28C9.719,11.246 9.411,11.134 9.159,10.979C8.89,10.814 8.682,10.595 8.586,10.363C8.482,10.112 8.504,9.853 8.64,9.611C8.762,9.391 8.98,9.187 9.282,9.022C9.556,8.871 9.906,8.75 10.252,8.668M5.472,18.995C5.509,18.564 5.564,18.111 5.654,17.616C5.745,17.109 5.874,16.551 6.112,15.984C6.354,15.406 6.706,14.836 7.237,14.332C7.704,13.89 8.304,13.507 8.954,13.179C9.733,12.787 10.587,12.475 11.363,12.239C12.075,12.023 12.727,11.869 13.321,11.793C13.948,11.712 14.516,11.716 15.028,11.821C15.536,11.925 15.982,12.127 16.365,12.404C16.765,12.693 17.091,13.061 17.342,13.477C17.581,13.874 17.754,14.314 17.855,14.814C17.954,15.301 17.983,15.846 17.938,16.462C17.894,17.057 17.78,17.717 17.613,18.388C17.444,19.069 17.217,19.772 16.952,20.439C16.689,21.098 16.388,21.721 16.025,22.286C15.653,22.866 15.218,23.383 14.699,23.815C14.191,24.237 13.606,24.575 12.986,24.831L12.987,24.832C12.336,25.1 11.642,25.276 10.956,25.36C10.288,25.442 9.63,25.435 9.026,25.344C8.41,25.251 7.845,25.071 7.375,24.808C6.958,24.575 6.619,24.28 6.347,23.951L6.346,23.95L6.345,23.949L6.344,23.948L6.343,23.947L6.342,23.945L6.341,23.944L6.34,23.943L6.34,23.942L6.339,23.941L6.338,23.94L6.337,23.939L6.336,23.937L6.335,23.936L6.334,23.935L6.333,23.934L6.332,23.933L6.331,23.932L6.33,23.931L6.329,23.929L6.329,23.928L6.327,23.927L6.327,23.926L6.326,23.925L6.325,23.924L6.324,23.923L6.323,23.921L6.322,23.92L6.321,23.919L6.32,23.918L6.319,23.917L6.318,23.916L6.318,23.915L6.317,23.914L6.316,23.912L6.315,23.912L6.315,23.911L6.314,23.91L6.313,23.909L6.312,23.908L6.311,23.907L6.31,23.906L6.309,23.905L6.309,23.903L6.308,23.903L6.306,23.9L6.305,23.899L6.304,23.898L6.303,23.897L6.302,23.895L6.301,23.894L6.3,23.893L6.299,23.892L6.298,23.891L6.298,23.89L6.297,23.889L6.296,23.887L6.295,23.886L6.294,23.885L6.293,23.884L6.292,23.883L6.292,23.882L6.29,23.881L6.289,23.88L6.289,23.878L6.283,23.872L6.278,23.864L6.274,23.86L6.272,23.857L6.267,23.85L6.261,23.844L6.259,23.841L6.256,23.837L6.246,23.824L6.245,23.822L6.24,23.815L6.235,23.808L6.23,23.803L6.23,23.801L6.224,23.794L6.219,23.787L6.216,23.783L6.214,23.78L6.209,23.773L6.203,23.766L6.202,23.764L6.198,23.759L6.193,23.751L6.189,23.745L6.188,23.744L6.183,23.737L6.178,23.73L6.175,23.726L6.173,23.723L6.168,23.715L6.163,23.708L6.161,23.706L6.158,23.701L6.153,23.694L6.148,23.687L6.143,23.679L6.138,23.672L6.134,23.668L6.133,23.665L6.128,23.658L6.123,23.65L6.121,23.648L6.118,23.643L6.113,23.636L6.109,23.629L6.108,23.628L6.09,23.6L6.085,23.592L6.082,23.589L6.08,23.585L6.076,23.578L6.066,23.563L6.062,23.556L6.052,23.541L6.048,23.534L6.045,23.53L6.043,23.526L6.039,23.519L6.034,23.512L6.033,23.51L6.029,23.504L6.025,23.497L6.021,23.49L6.021,23.489L6.016,23.482L6.012,23.475L6.009,23.47L6.007,23.467L6.003,23.46L5.999,23.452L5.997,23.45L5.994,23.445L5.99,23.438L5.986,23.43L5.985,23.43L5.981,23.423L5.977,23.415C5.823,23.145 5.704,22.865 5.617,22.586C5.49,22.179 5.43,21.775 5.406,21.371C5.382,20.982 5.392,20.595 5.406,20.202C5.419,19.811 5.436,19.414 5.472,18.995M6.792,22.6C6.941,22.525 7.104,22.47 7.278,22.437C8.016,22.297 8.728,22.606 9.091,23.163C9.345,22.77 9.769,22.473 10.285,22.375C10.91,22.256 11.515,22.459 11.906,22.861C12.121,22.338 12.613,21.923 13.242,21.804C13.549,21.746 13.851,21.765 14.125,21.848C14.27,21.21 14.814,20.677 15.541,20.539C15.616,20.525 15.691,20.515 15.766,20.51C15.56,20.986 15.331,21.434 15.07,21.841C14.755,22.332 14.389,22.768 13.957,23.128C13.542,23.473 13.063,23.75 12.553,23.96L12.551,23.959C11.998,24.187 11.416,24.336 10.847,24.405C10.295,24.473 9.752,24.468 9.256,24.392C8.778,24.32 8.346,24.184 7.993,23.987C7.671,23.807 7.41,23.572 7.204,23.309C7.031,23.089 6.895,22.847 6.792,22.6M16.383,13.991C16.178,14.117 15.941,14.206 15.684,14.245C15.076,14.338 14.498,14.132 14.119,13.743C13.906,14.299 13.379,14.737 12.71,14.839C12.211,14.916 11.731,14.789 11.366,14.526C11.177,15.127 10.629,15.609 9.923,15.716C9.563,15.772 9.213,15.721 8.909,15.59C8.796,16.288 8.205,16.875 7.417,16.996C7.241,17.022 7.068,17.025 6.902,17.004C6.965,16.764 7.043,16.522 7.142,16.287C7.337,15.822 7.616,15.367 8.034,14.971C8.416,14.609 8.92,14.289 9.473,14.01C10.181,13.654 10.967,13.367 11.685,13.149C12.326,12.955 12.909,12.817 13.433,12.749C13.925,12.686 14.359,12.686 14.734,12.764C15.082,12.835 15.385,12.972 15.644,13.159C15.933,13.368 16.173,13.641 16.363,13.956C16.37,13.968 16.377,13.979 16.383,13.991" style="fill:rgb(35,31,32);"/>
            </g>
        </g>
    </g>
</svg>
