<?xml version="1.0" encoding="UTF-8" standalone="no"?>
<!DOCTYPE svg PUBLIC "-//W3C//DTD SVG 1.1//EN" "http://www.w3.org/Graphics/SVG/1.1/DTD/svg11.dtd">
<svg width="100%" height="100%" viewBox="0 0 533 373" version="1.1" xmlns="http://www.w3.org/2000/svg" xmlns:xlink="http://www.w3.org/1999/xlink" xml:space="preserve" xmlns:serif="http://www.serif.com/" style="fill-rule:evenodd;clip-rule:evenodd;stroke-linejoin:round;stroke-miterlimit:2;">
    <g transform="matrix(1,0,0,1,-8351.73,-1054.07)">
        <g transform="matrix(4.16667,0,0,4.16667,7892.72,0)">
            <g transform="matrix(1,0,0,1,0,11.3026)">
                <path d="M181.955,291.948C181.955,282.801 178.993,274.962 172.983,268.777C166.886,262.418 158.959,259.196 149.464,259.196L116.893,291.225C116.889,291.465 116.886,291.706 116.886,291.948C116.886,301.181 119.935,309.021 125.858,315.118C131.847,321.36 139.471,324.58 148.57,324.777L181.955,291.948ZM149.464,312.244C143.367,312.244 138.576,310.414 134.918,306.494C131.346,302.662 129.604,297.958 129.604,291.948C129.604,286.024 131.346,281.233 134.918,277.488C138.576,273.568 143.367,271.652 149.464,271.652C155.562,271.652 160.265,273.568 164.011,277.488C167.582,281.233 169.324,286.024 169.324,291.948C169.324,297.958 167.582,302.662 164.011,306.494C160.353,310.501 155.562,312.244 149.464,312.244" style="fill:white;fill-rule:nonzero;"/>
            </g>
        </g>
        <g transform="matrix(4.16667,0,0,4.16667,7892.72,0)">
            <g transform="matrix(1,0,0,1,0,-23.8317)">
                <path d="M154.304,289.571C150.766,288.339 146.904,287.719 142.741,287.719C133.247,287.719 125.32,290.942 119.223,297.301C113.212,303.485 110.164,311.325 110.164,320.471C110.164,324.367 110.706,328.015 111.779,331.388L122.881,320.471C122.881,314.548 124.623,309.757 128.195,306.011C131.853,302.092 136.644,300.175 142.741,300.175C143,300.175 143.256,300.179 143.509,300.186L154.304,289.571Z" style="fill:white;fill-rule:nonzero;"/>
            </g>
        </g>
        <g transform="matrix(4.16667,0,0,4.16667,7892.72,0)">
            <g transform="matrix(1,0,0,1,0,45.6273)">
                <path d="M155.779,296.672C165.274,296.672 173.2,293.449 179.298,287.091C185.308,280.906 188.27,273.066 188.27,263.833C188.27,259.973 187.742,256.345 186.68,252.976L175.639,263.833C175.639,269.844 173.898,274.547 170.326,278.38C166.668,282.387 161.877,284.129 155.779,284.129C155.521,284.129 155.265,284.125 155.011,284.119L144.155,294.794C147.715,296.046 151.595,296.672 155.779,296.672" style="fill:white;fill-rule:nonzero;"/>
            </g>
        </g>
        <g transform="matrix(4.16667,0,0,4.16667,7892.72,0)">
            <g transform="matrix(1,0,0,1,0,-79.8721)">
                <path d="M193.593,333.129C193.058,332.942 192.472,332.848 191.842,332.848C190.404,332.848 189.204,333.336 188.281,334.299C187.371,335.235 186.909,336.423 186.909,337.808C186.909,338.398 186.991,338.95 187.153,339.461L187.544,339.077C187.726,339.783 188.075,340.425 188.613,340.982C189.493,341.894 190.584,342.3 191.842,342.3C193.091,342.3 194.186,341.898 195.057,340.995C195.91,340.112 196.281,339.028 196.281,337.808C196.281,336.592 195.906,335.511 195.057,334.633C194.519,334.075 193.897,333.709 193.205,333.511L193.593,333.129ZM188.375,338.26L188.835,337.808L188.835,337.808C188.835,336.91 189.098,336.185 189.639,335.618C190.193,335.024 190.919,334.734 191.842,334.734C191.881,334.734 191.92,334.735 191.959,334.736L192.413,334.29C193.17,334.39 193.835,334.703 194.392,335.286C195.058,335.983 195.33,336.853 195.33,337.808C195.33,338.774 195.056,339.622 194.398,340.335C193.714,341.078 192.837,341.361 191.842,341.361C190.852,341.361 189.971,341.071 189.288,340.338C188.73,339.74 188.45,339.041 188.375,338.26" style="fill:white;fill-rule:nonzero;"/>
            </g>
        </g>
        <g transform="matrix(4.16667,0,0,4.16667,7892.72,0)">
            <g transform="matrix(1,0,0,1,0,-79.1651)">
                <path d="M202.581,342.188C203.835,342.188 204.862,341.775 205.648,340.961C206.435,340.148 206.836,339.081 206.836,337.787L206.836,332.253L204.902,332.253L204.902,337.814C204.902,338.654 204.662,339.268 204.195,339.708C203.781,340.095 203.248,340.268 202.581,340.268C201.914,340.268 201.394,340.095 200.994,339.708C200.527,339.254 200.287,338.641 200.287,337.814L200.287,332.253L198.34,332.253L198.34,337.787C198.34,339.081 198.74,340.161 199.527,340.961C200.327,341.775 201.354,342.188 202.581,342.188" style="fill:white;fill-rule:nonzero;"/>
            </g>
        </g>
        <g transform="matrix(4.16667,0,0,4.16667,7892.72,0)">
            <g transform="matrix(1,0,0,1,0,-79.2717)">
                <path d="M211.01,342.188L212.944,342.188L212.944,334.253L216.051,334.253L216.051,332.359L207.902,332.359L207.902,334.253L211.01,334.253L211.01,342.188Z" style="fill:white;fill-rule:nonzero;"/>
            </g>
        </g>
        <g transform="matrix(4.16667,0,0,4.16667,7892.72,0)">
            <g transform="matrix(1,0,0,1,0,-52.2711)">
                <path d="M198.473,328.688L200.421,328.688L200.421,325.5L204.301,325.5L204.301,323.58L200.421,323.58L200.421,320.753L205.835,320.753L205.835,318.859L198.473,318.859L198.473,328.688Z" style="fill:white;fill-rule:nonzero;"/>
            </g>
        </g>
        <g transform="matrix(4.16667,0,0,4.16667,7892.72,0)">
            <g transform="matrix(1,0,0,1,0,-52.1059)">
                <path d="M196.182,322.151C195.997,321.426 195.64,320.767 195.085,320.192C194.194,319.269 193.075,318.859 191.798,318.859C190.52,318.859 189.401,319.269 188.51,320.192C187.643,321.09 187.245,322.194 187.245,323.438C187.245,324.678 187.632,325.789 188.496,326.684C189.051,327.259 189.687,327.637 190.395,327.842L189.998,328.232C190.549,328.426 191.15,328.523 191.798,328.523C193.268,328.523 194.495,328.024 195.439,327.039C196.37,326.081 196.828,324.868 196.828,323.438C196.828,322.841 196.746,322.279 196.582,321.758L196.182,322.151ZM195.342,322.978L194.873,323.439C194.873,324.369 194.603,325.097 194.05,325.69C193.484,326.311 192.742,326.581 191.798,326.581C191.758,326.581 191.719,326.58 191.68,326.579L191.214,327.036C190.439,326.938 189.747,326.628 189.186,326.026C188.508,325.298 188.231,324.426 188.231,323.438C188.231,322.462 188.513,321.578 189.188,320.863C189.89,320.118 190.783,319.805 191.798,319.805C192.817,319.805 193.697,320.118 194.405,320.86C194.977,321.459 195.265,322.182 195.342,322.978" style="fill:white;"/>
            </g>
        </g>
        <g transform="matrix(4.16667,0,0,4.16667,7892.72,0)">
            <g transform="matrix(1,0,0,1,0,-25.2706)">
                <path d="M198.473,315.188L200.421,315.188L200.421,312L204.301,312L204.301,310.08L200.421,310.08L200.421,307.252L205.835,307.252L205.835,305.359L198.473,305.359L198.473,315.188Z" style="fill:white;fill-rule:nonzero;"/>
            </g>
        </g>
        <g transform="matrix(4.16667,0,0,4.16667,7892.72,0)">
            <g transform="matrix(1,0,0,1,0,-25.2706)">
                <path d="M207.169,315.188L209.116,315.188L209.116,312L212.997,312L212.997,310.08L209.116,310.08L209.116,307.252L214.531,307.252L214.531,305.359L207.169,305.359L207.169,315.188Z" style="fill:white;fill-rule:nonzero;"/>
            </g>
        </g>
        <g transform="matrix(4.16667,0,0,4.16667,7892.72,0)">
            <g transform="matrix(1,0,0,1,0,-25.2706)">
                <rect x="215.865" y="305.359" width="1.947" height="9.829" style="fill:white;"/>
            </g>
        </g>
        <g transform="matrix(4.16667,0,0,4.16667,7892.72,0)">
            <g transform="matrix(1,0,0,1,0,-25.3242)">
                <path d="M224.187,315.321C225.267,315.321 226.214,315.015 227.014,314.454C227.734,313.947 228.254,313.254 228.588,312.414L226.854,311.614L226.841,311.614L226.721,311.907C226.534,312.374 226.227,312.734 225.827,313.001C225.414,313.281 224.96,313.401 224.413,313.401C223.387,313.401 222.626,313.121 222.106,312.521C221.613,311.947 221.359,311.227 221.359,310.293C221.359,309.373 221.599,308.64 222.106,308.066C222.346,307.799 222.653,307.586 223.013,307.426C223.373,307.266 223.84,307.186 224.413,307.186C224.96,307.186 225.414,307.319 225.827,307.599C226.227,307.866 226.521,308.226 226.721,308.693L226.841,308.973L226.854,308.973L228.588,308.186C228.254,307.333 227.734,306.639 227.014,306.146C226.2,305.586 225.267,305.279 224.187,305.279C222.746,305.279 221.573,305.772 220.679,306.759C219.839,307.693 219.412,308.88 219.412,310.293C219.412,311.707 219.839,312.894 220.679,313.841C221.559,314.841 222.746,315.321 224.187,315.321" style="fill:white;fill-rule:nonzero;"/>
            </g>
        </g>
        <g transform="matrix(4.16667,0,0,4.16667,7892.72,0)">
            <g transform="matrix(1,0,0,1,0,-25.2706)">
                <path d="M230.188,315.188L237.67,315.188L237.67,313.281L232.135,313.281L232.135,311.227L236.15,311.227L236.15,309.306L232.135,309.306L232.135,307.252L237.67,307.252L237.67,305.359L230.188,305.359L230.188,315.188Z" style="fill:white;fill-rule:nonzero;"/>
            </g>
        </g>
        <g transform="matrix(4.16667,0,0,4.16667,7892.72,0)">
            <g transform="matrix(1,0,0,1,0,-25.378)">
                <path d="M196.787,310.322L196.787,310.321C196.787,308.939 196.34,307.754 195.432,306.819C194.51,305.858 193.313,305.371 191.878,305.371L191.367,305.874C190.331,305.971 189.417,306.376 188.668,307.152C187.967,307.878 187.58,308.742 187.468,309.708L186.955,310.212C186.954,310.248 186.954,310.285 186.954,310.321C186.954,311.716 187.414,312.901 188.309,313.823C189.215,314.766 190.367,315.253 191.743,315.283L192.241,314.793C193.337,314.721 194.302,314.315 195.086,313.503C195.821,312.742 196.197,311.832 196.287,310.814L196.787,310.322ZM191.877,313.388C190.955,313.388 190.232,313.112 189.679,312.519C189.139,311.94 188.876,311.229 188.876,310.321C188.876,309.426 189.139,308.702 189.679,308.136C190.232,307.543 190.955,307.254 191.877,307.254C192.799,307.254 193.51,307.543 194.076,308.136C194.615,308.702 194.879,309.426 194.879,310.321C194.879,311.229 194.615,311.94 194.076,312.519C193.523,313.125 192.799,313.388 191.877,313.388" style="fill:white;fill-rule:nonzero;"/>
            </g>
        </g>
        <g transform="matrix(4.16667,0,0,4.16667,7892.72,0)">
            <g transform="matrix(1,0,0,1,0,-3.0455)">
                <path d="M204.898,301.618L207.239,301.618C207.519,301.618 207.772,301.584 207.979,301.511C208.645,301.304 208.992,300.857 208.992,300.217C208.992,300.024 208.966,299.844 208.899,299.691C208.792,299.431 208.626,299.231 208.399,299.077C208.639,298.844 208.766,298.517 208.766,298.11C208.766,297.731 208.639,297.41 208.392,297.163C208.092,296.857 207.672,296.703 207.125,296.703L204.898,296.703L204.898,301.618ZM205.872,298.691L205.872,297.644L207.179,297.644C207.405,297.644 207.559,297.697 207.665,297.81C207.712,297.857 207.739,297.904 207.759,297.957C207.785,298.017 207.792,298.097 207.792,298.184C207.792,298.257 207.779,298.331 207.745,298.397C207.685,298.524 207.552,298.691 207.125,298.691L205.872,298.691ZM205.872,300.671L205.872,299.617L207.239,299.617C207.519,299.617 207.725,299.677 207.859,299.797C207.972,299.897 208.026,300.017 208.026,300.177C208.026,300.338 207.972,300.451 207.865,300.531C207.745,300.624 207.552,300.671 207.299,300.671L205.872,300.671Z" style="fill:white;fill-rule:nonzero;"/>
            </g>
        </g>
        <g transform="matrix(4.16667,0,0,4.16667,7892.72,0)">
            <g transform="matrix(1,0,0,1,0,-3.0722)">
                <path d="M212.019,301.684C212.746,301.684 213.353,301.438 213.82,300.951C214.28,300.478 214.506,299.878 214.506,299.171C214.506,298.471 214.28,297.871 213.82,297.397C213.353,296.91 212.746,296.664 212.019,296.664C211.292,296.664 210.686,296.91 210.219,297.397C209.759,297.871 209.526,298.471 209.526,299.171C209.526,299.878 209.759,300.478 210.212,300.944C210.686,301.438 211.292,301.684 212.019,301.684ZM212.019,300.724C211.553,300.724 211.186,300.584 210.906,300.284C210.633,299.991 210.499,299.631 210.499,299.171C210.499,298.717 210.633,298.35 210.906,298.064C211.186,297.764 211.553,297.617 212.019,297.617C212.486,297.617 212.846,297.764 213.133,298.064C213.406,298.35 213.539,298.717 213.539,299.171C213.539,299.631 213.406,299.991 213.133,300.284C212.853,300.591 212.486,300.724 212.019,300.724" style="fill:white;fill-rule:nonzero;"/>
            </g>
        </g>
        <g transform="matrix(4.16667,0,0,4.16667,7892.72,0)">
            <g transform="matrix(1,0,0,1,0,-3.0722)">
                <path d="M217.533,301.684C218.26,301.684 218.867,301.438 219.334,300.951C219.794,300.478 220.021,299.878 220.021,299.171C220.021,298.471 219.794,297.871 219.334,297.397C218.867,296.91 218.26,296.664 217.533,296.664C216.807,296.664 216.2,296.91 215.733,297.397C215.273,297.871 215.04,298.471 215.04,299.171C215.04,299.878 215.273,300.478 215.727,300.944C216.2,301.438 216.807,301.684 217.533,301.684ZM217.533,300.724C217.067,300.724 216.7,300.584 216.42,300.284C216.147,299.991 216.013,299.631 216.013,299.171C216.013,298.717 216.147,298.35 216.42,298.064C216.7,297.764 217.067,297.617 217.533,297.617C218,297.617 218.36,297.764 218.647,298.064C218.921,298.35 219.054,298.717 219.054,299.171C219.054,299.631 218.921,299.991 218.647,300.284C218.367,300.591 218,300.724 217.533,300.724" style="fill:white;fill-rule:nonzero;"/>
            </g>
        </g>
        <g transform="matrix(4.16667,0,0,4.16667,7892.72,0)">
            <g transform="matrix(1,0,0,1,0,-3.0455)">
                <path d="M220.821,301.618L221.794,301.618L221.794,299.837L222.434,299.237L224.001,301.618L225.195,301.618L223.154,298.57L225.135,296.703L223.741,296.703L221.794,298.53L221.794,296.703L220.821,296.703L220.821,301.618Z" style="fill:white;fill-rule:nonzero;"/>
            </g>
        </g>
        <g transform="matrix(4.16667,0,0,4.16667,7892.72,0)">
            <g transform="matrix(1,0,0,1,0,-3.0455)">
                <rect x="225.762" y="296.703" width="0.973" height="4.914" style="fill:white;"/>
            </g>
        </g>
        <g transform="matrix(4.16667,0,0,4.16667,7892.72,0)">
            <g transform="matrix(1,0,0,1,0,-3.0455)">
                <path d="M227.802,301.618L228.775,301.618L228.775,298.344L231.169,301.618L232.109,301.618L232.109,296.703L231.136,296.703L231.136,299.964L228.735,296.703L227.802,296.703L227.802,301.618Z" style="fill:white;fill-rule:nonzero;"/>
            </g>
        </g>
        <g transform="matrix(4.16667,0,0,4.16667,7892.72,0)">
            <g transform="matrix(1,0,0,1,0,-3.0722)">
                <path d="M235.403,301.684C236.13,301.684 236.737,301.438 237.203,300.944C237.577,300.551 237.817,300.071 237.87,299.517C237.884,299.384 237.89,299.277 237.89,299.171L237.89,299.037L237.877,298.784L235.21,298.784L235.21,299.724L236.843,299.724C236.777,299.937 236.67,300.117 236.517,300.284C236.236,300.591 235.87,300.724 235.403,300.724C234.937,300.724 234.57,300.584 234.29,300.284C234.016,299.991 233.883,299.631 233.883,299.171C233.883,298.717 234.016,298.35 234.29,298.064C234.57,297.764 234.937,297.617 235.403,297.617C235.87,297.617 236.236,297.757 236.517,298.064C236.577,298.131 236.637,298.204 236.683,298.284L236.757,298.39L237.81,298.39L237.657,298.057C237.544,297.817 237.39,297.591 237.203,297.397C236.737,296.91 236.13,296.664 235.403,296.664C234.676,296.664 234.07,296.91 233.603,297.397C233.143,297.871 232.909,298.471 232.909,299.171C232.909,299.878 233.143,300.478 233.596,300.944C234.07,301.438 234.676,301.684 235.403,301.684" style="fill:white;fill-rule:nonzero;"/>
            </g>
        </g>
    </g>
</svg>
