<?xml version="1.0" encoding="UTF-8" standalone="no"?>
<!DOCTYPE svg PUBLIC "-//W3C//DTD SVG 1.1//EN" "http://www.w3.org/Graphics/SVG/1.1/DTD/svg11.dtd">
<svg width="100%" height="100%" viewBox="0 0 536 327" version="1.1" xmlns="http://www.w3.org/2000/svg" xmlns:xlink="http://www.w3.org/1999/xlink" xml:space="preserve" xmlns:serif="http://www.serif.com/" style="fill-rule:evenodd;clip-rule:evenodd;stroke-linejoin:round;stroke-miterlimit:2;">
    <g transform="matrix(1,0,0,1,-10408,-1107.11)">
        <g transform="matrix(4.16667,0,0,4.16667,7892.72,0)">
            <g transform="matrix(1,0,0,1,0,14.9395)">
                <path d="M725.845,290.129C725.845,280.983 722.883,273.144 716.873,266.959C710.776,260.6 702.849,257.377 693.354,257.377L660.783,289.407C660.779,289.647 660.777,289.887 660.777,290.129C660.777,299.363 663.825,307.202 669.749,313.299C675.738,319.542 683.361,322.762 692.46,322.959L725.845,290.129ZM693.354,310.425C687.257,310.425 682.466,308.596 678.807,304.676C675.236,300.843 673.494,296.14 673.494,290.129C673.494,284.206 675.236,279.415 678.807,275.669C682.466,271.75 687.257,269.833 693.354,269.833C699.452,269.833 704.156,271.75 707.901,275.669C711.473,279.415 713.214,284.206 713.214,290.129C713.214,296.14 711.473,300.843 707.901,304.676C704.243,308.683 699.452,310.425 693.354,310.425" style="fill:white;fill-rule:nonzero;"/>
            </g>
        </g>
        <g transform="matrix(4.16667,0,0,4.16667,7892.72,0)">
            <g transform="matrix(1,0,0,1,0,-20.1946)">
                <path d="M698.194,287.752C694.656,286.52 690.794,285.9 686.631,285.9C677.137,285.9 669.21,289.123 663.113,295.482C657.102,301.667 654.054,309.506 654.054,318.652C654.054,322.548 654.596,326.196 655.669,329.57L666.771,318.652C666.771,312.729 668.514,307.938 672.085,304.193C675.743,300.273 680.534,298.356 686.631,298.356C686.89,298.356 687.146,298.36 687.399,298.367L698.194,287.752Z" style="fill:white;fill-rule:nonzero;"/>
            </g>
        </g>
        <g transform="matrix(4.16667,0,0,4.16667,7892.72,0)">
            <g transform="matrix(1,0,0,1,0,49.2642)">
                <path d="M699.669,294.854C709.164,294.854 717.091,291.631 723.188,285.272C729.198,279.088 732.16,271.248 732.16,262.015C732.16,258.154 731.632,254.527 730.571,251.157L719.53,262.015C719.53,268.025 717.788,272.729 714.216,276.562C710.558,280.568 705.767,282.311 699.669,282.311C699.411,282.311 699.155,282.307 698.901,282.3L688.045,292.975C691.605,294.227 695.485,294.854 699.669,294.854" style="fill:white;fill-rule:nonzero;"/>
            </g>
        </g>
        <g transform="matrix(4.16667,0,0,4.16667,7892.72,0)">
            <g transform="matrix(1,0,0,1,0,1.12)">
                <path d="M610.349,292.633C609.813,292.446 609.228,292.352 608.598,292.352C607.16,292.352 605.959,292.84 605.036,293.803C604.126,294.739 603.664,295.927 603.664,297.312C603.664,297.902 603.747,298.454 603.909,298.965L604.299,298.581C604.482,299.287 604.831,299.929 605.369,300.487C606.249,301.398 607.339,301.804 608.598,301.804C609.847,301.804 610.941,301.403 611.813,300.499C612.666,299.616 613.037,298.532 613.037,297.312C613.037,296.096 612.661,295.015 611.813,294.137C611.275,293.579 610.652,293.213 609.96,293.015L610.349,292.633ZM605.131,297.764L605.59,297.312L605.59,297.312C605.59,296.415 605.854,295.69 606.395,295.122C606.949,294.529 607.674,294.239 608.598,294.239C608.637,294.239 608.676,294.239 608.715,294.24L609.168,293.794C609.925,293.894 610.591,294.207 611.148,294.79C611.814,295.487 612.085,296.357 612.085,297.312C612.085,298.278 611.811,299.126 611.154,299.84C610.469,300.582 609.593,300.865 608.598,300.865C607.607,300.865 606.727,300.575 606.043,299.842C605.485,299.244 605.206,298.545 605.131,297.764" style="fill:white;fill-rule:nonzero;"/>
            </g>
        </g>
        <g transform="matrix(4.16667,0,0,4.16667,7892.72,0)">
            <g transform="matrix(1,0,0,1,0,1.8275)">
                <path d="M619.337,301.692C620.59,301.692 621.617,301.279 622.404,300.465C623.191,299.652 623.591,298.585 623.591,297.291L623.591,291.756L621.657,291.756L621.657,297.317C621.657,298.158 621.417,298.771 620.95,299.211C620.537,299.598 620.003,299.771 619.337,299.771C618.67,299.771 618.15,299.598 617.75,299.211C617.283,298.758 617.043,298.144 617.043,297.317L617.043,291.756L615.095,291.756L615.095,297.291C615.095,298.585 615.496,299.665 616.283,300.465C617.083,301.279 618.11,301.692 619.337,301.692" style="fill:white;fill-rule:nonzero;"/>
            </g>
        </g>
        <g transform="matrix(4.16667,0,0,4.16667,7892.72,0)">
            <g transform="matrix(1,0,0,1,0,1.7209)">
                <path d="M627.765,301.692L629.699,301.692L629.699,293.757L632.807,293.757L632.807,291.863L624.658,291.863L624.658,293.757L627.765,293.757L627.765,301.692Z" style="fill:white;fill-rule:nonzero;"/>
            </g>
        </g>
        <g transform="matrix(4.16667,0,0,4.16667,7892.72,0)">
            <g transform="matrix(1,0,0,1,0,28.7215)">
                <path d="M615.229,288.192L617.176,288.192L617.176,285.004L621.057,285.004L621.057,283.084L617.176,283.084L617.176,280.256L622.591,280.256L622.591,278.363L615.229,278.363L615.229,288.192Z" style="fill:white;fill-rule:nonzero;"/>
            </g>
        </g>
        <g transform="matrix(4.16667,0,0,4.16667,7892.72,0)">
            <g transform="matrix(1,0,0,1,0,28.8865)">
                <path d="M612.938,281.655C612.753,280.929 612.395,280.271 611.841,279.696C610.949,278.773 609.831,278.363 608.553,278.363C607.275,278.363 606.157,278.773 605.265,279.696C604.398,280.594 604.001,281.698 604.001,282.942C604.001,284.182 604.388,285.293 605.252,286.188C605.806,286.763 606.443,287.14 607.151,287.346L606.754,287.736C607.305,287.929 607.905,288.027 608.553,288.027C610.023,288.027 611.25,287.527 612.195,286.543C613.125,285.585 613.584,284.372 613.584,282.942C613.584,282.345 613.502,281.783 613.338,281.262L612.938,281.655ZM612.097,282.482L611.628,282.943C611.628,283.873 611.358,284.601 610.805,285.194C610.239,285.814 609.497,286.085 608.553,286.085C608.513,286.085 608.474,286.084 608.435,286.083L607.97,286.54C607.195,286.441 606.503,286.132 605.942,285.53C605.264,284.802 604.987,283.93 604.987,282.942C604.987,281.965 605.269,281.082 605.944,280.366C606.646,279.622 607.538,279.308 608.553,279.308C609.573,279.308 610.452,279.622 611.161,280.364C611.733,280.963 612.02,281.686 612.097,282.482" style="fill:white;"/>
            </g>
        </g>
        <g transform="matrix(4.16667,0,0,4.16667,7892.72,0)">
            <g transform="matrix(1,0,0,1,0,55.7221)">
                <path d="M615.229,274.691L617.176,274.691L617.176,271.504L621.057,271.504L621.057,269.583L617.176,269.583L617.176,266.756L622.591,266.756L622.591,264.862L615.229,264.862L615.229,274.691Z" style="fill:white;fill-rule:nonzero;"/>
            </g>
        </g>
        <g transform="matrix(4.16667,0,0,4.16667,7892.72,0)">
            <g transform="matrix(1,0,0,1,0,55.7221)">
                <path d="M623.925,274.691L625.872,274.691L625.872,271.504L629.752,271.504L629.752,269.583L625.872,269.583L625.872,266.756L631.286,266.756L631.286,264.862L623.925,264.862L623.925,274.691Z" style="fill:white;fill-rule:nonzero;"/>
            </g>
        </g>
        <g transform="matrix(4.16667,0,0,4.16667,7892.72,0)">
            <g transform="matrix(1,0,0,1,0,55.7221)">
                <rect x="632.62" y="264.862" width="1.947" height="9.829" style="fill:white;"/>
            </g>
        </g>
        <g transform="matrix(4.16667,0,0,4.16667,7892.72,0)">
            <g transform="matrix(1,0,0,1,0,55.6684)">
                <path d="M640.942,274.825C642.022,274.825 642.969,274.518 643.77,273.958C644.49,273.451 645.01,272.758 645.343,271.918L643.609,271.117L643.596,271.117L643.476,271.411C643.289,271.877 642.983,272.238 642.583,272.504C642.169,272.785 641.716,272.904 641.169,272.904C640.142,272.904 639.382,272.624 638.862,272.024C638.368,271.451 638.115,270.731 638.115,269.797C638.115,268.877 638.355,268.143 638.862,267.57C639.102,267.303 639.409,267.09 639.769,266.93C640.129,266.77 640.595,266.689 641.169,266.689C641.716,266.689 642.169,266.823 642.583,267.103C642.983,267.37 643.276,267.73 643.476,268.197L643.596,268.477L643.609,268.477L645.343,267.69C645.01,266.836 644.49,266.143 643.77,265.649C642.956,265.089 642.022,264.782 640.942,264.782C639.502,264.782 638.328,265.276 637.435,266.263C636.595,267.196 636.168,268.383 636.168,269.797C636.168,271.211 636.595,272.398 637.435,273.345C638.315,274.345 639.502,274.825 640.942,274.825" style="fill:white;fill-rule:nonzero;"/>
            </g>
        </g>
        <g transform="matrix(4.16667,0,0,4.16667,7892.72,0)">
            <g transform="matrix(1,0,0,1,0,55.7221)">
                <path d="M646.944,274.691L654.426,274.691L654.426,272.784L648.891,272.784L648.891,270.73L652.905,270.73L652.905,268.81L648.891,268.81L648.891,266.756L654.426,266.756L654.426,264.862L646.944,264.862L646.944,274.691Z" style="fill:white;fill-rule:nonzero;"/>
            </g>
        </g>
        <g transform="matrix(4.16667,0,0,4.16667,7892.72,0)">
            <g transform="matrix(1,0,0,1,0,55.6143)">
                <path d="M613.543,269.826L613.543,269.825C613.543,268.442 613.095,267.258 612.187,266.323C611.266,265.362 610.068,264.875 608.633,264.875L608.122,265.378C607.087,265.475 606.173,265.879 605.423,266.656C604.722,267.382 604.336,268.246 604.223,269.212L603.71,269.716C603.71,269.752 603.709,269.789 603.709,269.825C603.709,271.22 604.17,272.405 605.065,273.326C605.97,274.27 607.123,274.757 608.498,274.786L608.996,274.296C610.093,274.225 611.058,273.819 611.842,273.007C612.576,272.246 612.953,271.336 613.042,270.318L613.543,269.826ZM608.633,272.892C607.711,272.892 606.987,272.616 606.434,272.023C605.895,271.444 605.631,270.733 605.631,269.825C605.631,268.93 605.895,268.206 606.434,267.639C606.987,267.047 607.711,266.758 608.633,266.758C609.554,266.758 610.265,267.047 610.831,267.639C611.371,268.206 611.634,268.93 611.634,269.825C611.634,270.733 611.371,271.444 610.831,272.023C610.278,272.629 609.554,272.892 608.633,272.892" style="fill:white;fill-rule:nonzero;"/>
            </g>
        </g>
        <g transform="matrix(4.16667,0,0,4.16667,7892.72,0)">
            <g transform="matrix(1,0,0,1,0,77.9468)">
                <path d="M621.654,261.122L623.995,261.122C624.275,261.122 624.528,261.088 624.735,261.015C625.401,260.808 625.748,260.361 625.748,259.721C625.748,259.528 625.722,259.348 625.655,259.195C625.548,258.934 625.382,258.734 625.155,258.581C625.395,258.348 625.521,258.021 625.521,257.614C625.521,257.234 625.395,256.914 625.148,256.667C624.848,256.361 624.428,256.207 623.881,256.207L621.654,256.207L621.654,261.122ZM622.627,258.194L622.627,257.147L623.934,257.147C624.161,257.147 624.315,257.201 624.421,257.314C624.468,257.361 624.495,257.407 624.515,257.461C624.541,257.521 624.548,257.601 624.548,257.687C624.548,257.761 624.535,257.834 624.501,257.901C624.441,258.028 624.308,258.194 623.881,258.194L622.627,258.194ZM622.627,260.175L622.627,259.121L623.995,259.121C624.275,259.121 624.481,259.181 624.615,259.301C624.728,259.401 624.781,259.521 624.781,259.681C624.781,259.841 624.728,259.955 624.621,260.035C624.501,260.128 624.308,260.175 624.055,260.175L622.627,260.175Z" style="fill:white;fill-rule:nonzero;"/>
            </g>
        </g>
        <g transform="matrix(4.16667,0,0,4.16667,7892.72,0)">
            <g transform="matrix(1,0,0,1,0,77.9202)">
                <path d="M628.776,261.188C629.502,261.188 630.109,260.942 630.576,260.455C631.036,259.981 631.263,259.381 631.263,258.674C631.263,257.974 631.036,257.374 630.576,256.901C630.109,256.414 629.502,256.167 628.776,256.167C628.049,256.167 627.442,256.414 626.975,256.901C626.515,257.374 626.282,257.974 626.282,258.674C626.282,259.381 626.515,259.981 626.969,260.448C627.442,260.942 628.049,261.188 628.776,261.188ZM628.776,260.228C628.309,260.228 627.942,260.088 627.662,259.788C627.389,259.495 627.255,259.135 627.255,258.674C627.255,258.221 627.389,257.854 627.662,257.568C627.942,257.267 628.309,257.121 628.776,257.121C629.243,257.121 629.603,257.267 629.889,257.568C630.163,257.854 630.296,258.221 630.296,258.674C630.296,259.135 630.163,259.495 629.889,259.788C629.609,260.095 629.243,260.228 628.776,260.228" style="fill:white;fill-rule:nonzero;"/>
            </g>
        </g>
        <g transform="matrix(4.16667,0,0,4.16667,7892.72,0)">
            <g transform="matrix(1,0,0,1,0,77.9202)">
                <path d="M634.29,261.188C635.017,261.188 635.624,260.942 636.091,260.455C636.551,259.981 636.777,259.381 636.777,258.674C636.777,257.974 636.551,257.374 636.091,256.901C635.624,256.414 635.017,256.167 634.29,256.167C633.563,256.167 632.956,256.414 632.49,256.901C632.03,257.374 631.796,257.974 631.796,258.674C631.796,259.381 632.03,259.981 632.483,260.448C632.956,260.942 633.563,261.188 634.29,261.188ZM634.29,260.228C633.823,260.228 633.457,260.088 633.177,259.788C632.903,259.495 632.77,259.135 632.77,258.674C632.77,258.221 632.903,257.854 633.177,257.568C633.457,257.267 633.823,257.121 634.29,257.121C634.757,257.121 635.117,257.267 635.404,257.568C635.677,257.854 635.81,258.221 635.81,258.674C635.81,259.135 635.677,259.495 635.404,259.788C635.124,260.095 634.757,260.228 634.29,260.228" style="fill:white;fill-rule:nonzero;"/>
            </g>
        </g>
        <g transform="matrix(4.16667,0,0,4.16667,7892.72,0)">
            <g transform="matrix(1,0,0,1,0,77.9468)">
                <path d="M637.578,261.122L638.551,261.122L638.551,259.341L639.191,258.741L640.758,261.122L641.952,261.122L639.911,258.074L641.892,256.207L640.498,256.207L638.551,258.034L638.551,256.207L637.578,256.207L637.578,261.122Z" style="fill:white;fill-rule:nonzero;"/>
            </g>
        </g>
        <g transform="matrix(4.16667,0,0,4.16667,7892.72,0)">
            <g transform="matrix(1,0,0,1,0,77.9468)">
                <rect x="642.519" y="256.207" width="0.973" height="4.914" style="fill:white;"/>
            </g>
        </g>
        <g transform="matrix(4.16667,0,0,4.16667,7892.72,0)">
            <g transform="matrix(1,0,0,1,0,77.9468)">
                <path d="M644.559,261.122L645.532,261.122L645.532,257.848L647.927,261.122L648.867,261.122L648.867,256.207L647.893,256.207L647.893,259.468L645.492,256.207L644.559,256.207L644.559,261.122Z" style="fill:white;fill-rule:nonzero;"/>
            </g>
        </g>
        <g transform="matrix(4.16667,0,0,4.16667,7892.72,0)">
            <g transform="matrix(1,0,0,1,0,77.9202)">
                <path d="M652.161,261.188C652.887,261.188 653.494,260.942 653.961,260.448C654.335,260.055 654.575,259.574 654.628,259.021C654.641,258.888 654.648,258.781 654.648,258.674L654.648,258.541L654.635,258.288L651.967,258.288L651.967,259.228L653.601,259.228C653.534,259.441 653.427,259.621 653.274,259.788C652.994,260.095 652.628,260.228 652.161,260.228C651.694,260.228 651.327,260.088 651.047,259.788C650.774,259.495 650.64,259.135 650.64,258.674C650.64,258.221 650.774,257.854 651.047,257.568C651.327,257.267 651.694,257.121 652.161,257.121C652.628,257.121 652.994,257.261 653.274,257.568C653.334,257.634 653.394,257.707 653.441,257.788L653.514,257.894L654.568,257.894L654.415,257.561C654.301,257.321 654.148,257.094 653.961,256.901C653.494,256.414 652.887,256.167 652.161,256.167C651.434,256.167 650.827,256.414 650.36,256.901C649.9,257.374 649.667,257.974 649.667,258.674C649.667,259.381 649.9,259.981 650.354,260.448C650.827,260.942 651.434,261.188 652.161,261.188" style="fill:white;fill-rule:nonzero;"/>
            </g>
        </g>
    </g>
</svg>
