<?xml version="1.0" encoding="UTF-8" standalone="no"?>
<!DOCTYPE svg PUBLIC "-//W3C//DTD SVG 1.1//EN" "http://www.w3.org/Graphics/SVG/1.1/DTD/svg11.dtd">
<svg width="100%" height="100%" viewBox="0 0 434 699" version="1.1" xmlns="http://www.w3.org/2000/svg" xmlns:xlink="http://www.w3.org/1999/xlink" xml:space="preserve" xmlns:serif="http://www.serif.com/" style="fill-rule:evenodd;clip-rule:evenodd;stroke-linejoin:round;stroke-miterlimit:2;">
    <g transform="matrix(1,0,0,1,-1537.08,-890.768)">
        <g transform="matrix(4.16667,0,0,4.16667,0,0)">
            <g transform="matrix(1,0,0,1,0,-62.6357)">
                <path d="M464.622,328.904C464.622,316.709 460.673,306.256 452.659,298.01C444.529,289.532 433.96,285.234 421.301,285.234L377.873,327.94C377.867,328.26 377.864,328.581 377.864,328.904C377.864,341.215 381.928,351.668 389.826,359.798C397.812,368.121 407.976,372.414 420.108,372.677L464.622,328.904ZM421.301,355.965C413.171,355.965 406.783,353.526 401.905,348.3C397.143,343.189 394.82,336.918 394.82,328.904C394.82,321.006 397.143,314.618 401.905,309.624C406.783,304.398 413.171,301.843 421.301,301.843C429.431,301.843 435.702,304.398 440.696,309.624C445.458,314.618 447.781,321.006 447.781,328.904C447.781,336.918 445.458,343.189 440.696,348.3C435.819,353.642 429.431,355.965 421.301,355.965" style="fill:rgb(237,28,36);fill-rule:nonzero;"/>
            </g>
        </g>
        <g transform="matrix(4.16667,0,0,4.16667,0,0)">
            <g transform="matrix(1,0,0,1,0,-109.481)">
                <path d="M427.754,325.734C423.036,324.092 417.888,323.265 412.337,323.265C399.678,323.265 389.108,327.563 380.979,336.041C372.965,344.287 368.9,354.74 368.9,366.935C368.9,372.13 369.623,376.993 371.054,381.491L385.857,366.935C385.857,359.037 388.18,352.649 392.941,347.655C397.819,342.429 404.207,339.874 412.337,339.874C412.682,339.874 413.023,339.879 413.361,339.888L427.754,325.734Z" style="fill:rgb(245,130,31);fill-rule:nonzero;"/>
            </g>
        </g>
        <g transform="matrix(4.16667,0,0,4.16667,0,0)">
            <g transform="matrix(1,0,0,1,0,-16.8696)">
                <path d="M429.721,335.203C442.381,335.203 452.949,330.906 461.079,322.428C469.093,314.182 473.042,303.729 473.042,291.418C473.042,286.271 472.338,281.434 470.922,276.942L456.201,291.418C456.201,299.432 453.878,305.703 449.117,310.814C444.239,316.156 437.851,318.479 429.721,318.479C429.376,318.479 429.035,318.474 428.696,318.465L414.222,332.699C418.969,334.368 424.142,335.203 429.721,335.203" style="fill:rgb(236,0,140);fill-rule:nonzero;"/>
            </g>
        </g>
        <g transform="matrix(4.16667,0,0,4.16667,0,0)">
            <g transform="matrix(1,0,0,1,0,58.612)">
                <path d="M377.813,262.405C377.098,262.156 376.318,262.031 375.477,262.031C373.56,262.031 371.96,262.681 370.729,263.965C369.516,265.214 368.9,266.797 368.9,268.644C368.9,269.431 369.01,270.167 369.226,270.848L369.747,270.336C369.99,271.277 370.455,272.134 371.172,272.877C372.345,274.092 373.8,274.633 375.477,274.633C377.143,274.633 378.603,274.098 379.765,272.894C380.901,271.716 381.397,270.271 381.397,268.644C381.397,267.023 380.896,265.582 379.765,264.41C379.047,263.667 378.217,263.179 377.295,262.914L377.813,262.405ZM370.855,269.247L371.468,268.644L371.468,268.644C371.468,267.447 371.819,266.481 372.541,265.724C373.279,264.933 374.246,264.546 375.477,264.546C375.53,264.546 375.582,264.546 375.634,264.548L376.238,263.953C377.248,264.087 378.135,264.504 378.878,265.281C379.765,266.211 380.127,267.371 380.127,268.644C380.127,269.932 379.763,271.063 378.886,272.014C377.973,273.004 376.804,273.381 375.477,273.381C374.157,273.381 372.983,272.994 372.072,272.017C371.328,271.22 370.955,270.289 370.855,269.247" style="fill:rgb(35,31,32);fill-rule:nonzero;"/>
            </g>
        </g>
        <g transform="matrix(4.16667,0,0,4.16667,0,0)">
            <g transform="matrix(1,0,0,1,0,59.5551)">
                <path d="M389.797,274.484C391.468,274.484 392.837,273.933 393.887,272.848C394.936,271.764 395.469,270.341 395.469,268.616L395.469,261.236L392.891,261.236L392.891,268.651C392.891,269.772 392.571,270.59 391.948,271.177C391.397,271.692 390.686,271.924 389.797,271.924C388.907,271.924 388.214,271.692 387.68,271.177C387.058,270.572 386.738,269.754 386.738,268.651L386.738,261.236L384.142,261.236L384.142,268.616C384.142,270.341 384.675,271.781 385.724,272.848C386.791,273.933 388.161,274.484 389.797,274.484" style="fill:rgb(35,31,32);fill-rule:nonzero;"/>
            </g>
        </g>
        <g transform="matrix(4.16667,0,0,4.16667,0,0)">
            <g transform="matrix(1,0,0,1,0,59.4128)">
                <path d="M401.035,274.484L403.614,274.484L403.614,263.904L407.757,263.904L407.757,261.378L396.892,261.378L396.892,263.904L401.035,263.904L401.035,274.484Z" style="fill:rgb(35,31,32);fill-rule:nonzero;"/>
            </g>
        </g>
        <g transform="matrix(4.16667,0,0,4.16667,0,0)">
            <g transform="matrix(1,0,0,1,0,95.4134)">
                <path d="M384.32,256.484L386.916,256.484L386.916,252.234L392.09,252.234L392.09,249.673L386.916,249.673L386.916,245.903L394.135,245.903L394.135,243.378L384.32,243.378L384.32,256.484Z" style="fill:rgb(35,31,32);fill-rule:nonzero;"/>
            </g>
        </g>
        <g transform="matrix(4.16667,0,0,4.16667,0,0)">
            <g transform="matrix(1,0,0,1,0,95.6339)">
                <path d="M381.265,247.768C381.018,246.801 380.542,245.922 379.802,245.156C378.613,243.925 377.121,243.378 375.418,243.378C373.715,243.378 372.224,243.925 371.035,245.156C369.879,246.354 369.348,247.825 369.348,249.485C369.348,251.137 369.864,252.618 371.016,253.812C371.756,254.578 372.604,255.082 373.548,255.356L373.02,255.876C373.754,256.134 374.555,256.264 375.418,256.264C377.378,256.264 379.015,255.598 380.273,254.285C381.514,253.009 382.126,251.39 382.126,249.485C382.126,248.688 382.017,247.939 381.798,247.244L381.265,247.768ZM380.144,248.87L379.518,249.485C379.518,250.726 379.159,251.696 378.421,252.487C377.666,253.314 376.677,253.674 375.418,253.674C375.366,253.674 375.313,253.673 375.261,253.672L374.641,254.282C373.607,254.15 372.685,253.737 371.936,252.934C371.032,251.964 370.664,250.802 370.664,249.485C370.664,248.182 371.039,247.004 371.939,246.05C372.875,245.058 374.065,244.639 375.418,244.639C376.778,244.639 377.95,245.057 378.895,246.047C379.658,246.846 380.041,247.81 380.144,248.87" style="fill:rgb(35,31,32);"/>
            </g>
        </g>
        <g transform="matrix(4.16667,0,0,4.16667,0,0)">
            <g transform="matrix(1,0,0,1,0,131.414)">
                <path d="M384.32,238.484L386.916,238.484L386.916,234.234L392.09,234.234L392.09,231.673L386.916,231.673L386.916,227.903L394.136,227.903L394.136,225.378L384.32,225.378L384.32,238.484Z" style="fill:rgb(35,31,32);fill-rule:nonzero;"/>
            </g>
        </g>
        <g transform="matrix(4.16667,0,0,4.16667,0,0)">
            <g transform="matrix(1,0,0,1,0,131.414)">
                <path d="M395.914,238.484L398.51,238.484L398.51,234.234L403.685,234.234L403.685,231.673L398.51,231.673L398.51,227.903L405.73,227.903L405.73,225.378L395.914,225.378L395.914,238.484Z" style="fill:rgb(35,31,32);fill-rule:nonzero;"/>
            </g>
        </g>
        <g transform="matrix(4.16667,0,0,4.16667,0,0)">
            <g transform="matrix(1,0,0,1,0,131.414)">
                <rect x="407.509" y="225.378" width="2.596" height="13.106" style="fill:rgb(35,31,32);"/>
            </g>
        </g>
        <g transform="matrix(4.16667,0,0,4.16667,0,0)">
            <g transform="matrix(1,0,0,1,0,131.343)">
                <path d="M418.605,238.662C420.046,238.662 421.308,238.253 422.375,237.506C423.335,236.83 424.029,235.905 424.473,234.785L422.162,233.718L422.144,233.718L421.984,234.11C421.735,234.732 421.326,235.212 420.792,235.568C420.241,235.941 419.637,236.101 418.908,236.101C417.538,236.101 416.525,235.728 415.831,234.927C415.173,234.163 414.835,233.202 414.835,231.958C414.835,230.731 415.155,229.753 415.831,228.988C416.151,228.632 416.56,228.348 417.04,228.134C417.52,227.921 418.143,227.814 418.908,227.814C419.637,227.814 420.241,227.992 420.792,228.365C421.326,228.721 421.717,229.201 421.984,229.824L422.144,230.197L422.162,230.197L424.473,229.148C424.029,228.01 423.335,227.085 422.375,226.427C421.29,225.68 420.046,225.271 418.605,225.271C416.685,225.271 415.12,225.929 413.928,227.245C412.808,228.49 412.239,230.073 412.239,231.958C412.239,233.842 412.808,235.425 413.928,236.688C415.102,238.022 416.685,238.662 418.605,238.662" style="fill:rgb(35,31,32);fill-rule:nonzero;"/>
            </g>
        </g>
        <g transform="matrix(4.16667,0,0,4.16667,0,0)">
            <g transform="matrix(1,0,0,1,0,131.414)">
                <path d="M426.608,238.484L436.584,238.484L436.584,235.941L429.204,235.941L429.204,233.202L434.557,233.202L434.557,230.642L429.204,230.642L429.204,227.903L436.584,227.903L436.584,225.378L426.608,225.378L426.608,238.484Z" style="fill:rgb(35,31,32);fill-rule:nonzero;"/>
            </g>
        </g>
        <g transform="matrix(4.16667,0,0,4.16667,0,0)">
            <g transform="matrix(1,0,0,1,0,131.271)">
                <path d="M382.071,231.995L382.071,231.994C382.071,230.151 381.475,228.571 380.263,227.325C379.035,226.044 377.438,225.395 375.525,225.395L374.844,226.065C373.463,226.195 372.245,226.734 371.245,227.77C370.311,228.737 369.795,229.89 369.645,231.177L368.961,231.85C368.96,231.898 368.96,231.946 368.96,231.994C368.96,233.855 369.574,235.435 370.767,236.663C371.975,237.921 373.511,238.57 375.345,238.61L376.01,237.957C377.471,237.861 378.758,237.32 379.803,236.237C380.783,235.223 381.285,234.01 381.404,232.652L382.071,231.995ZM375.524,236.084C374.295,236.084 373.33,235.716 372.593,234.926C371.873,234.153 371.522,233.206 371.522,231.994C371.522,230.801 371.873,229.835 372.593,229.08C373.33,228.291 374.295,227.904 375.524,227.904C376.753,227.904 377.701,228.291 378.455,229.08C379.175,229.835 379.526,230.801 379.526,231.994C379.526,233.206 379.175,234.153 378.455,234.926C377.718,235.733 376.753,236.084 375.524,236.084" style="fill:rgb(35,31,32);fill-rule:nonzero;"/>
            </g>
        </g>
        <g transform="matrix(4.16667,0,0,4.16667,0,0)">
            <g transform="matrix(1,0,0,1,0,161.047)">
                <path d="M392.886,220.391L396.007,220.391C396.38,220.391 396.718,220.346 396.993,220.248C397.883,219.973 398.345,219.377 398.345,218.523C398.345,218.266 398.31,218.026 398.221,217.821C398.078,217.474 397.856,217.207 397.554,217.003C397.874,216.692 398.043,216.256 398.043,215.714C398.043,215.207 397.874,214.78 397.545,214.451C397.145,214.042 396.585,213.838 395.856,213.838L392.886,213.838L392.886,220.391ZM394.184,216.487L394.184,215.092L395.927,215.092C396.229,215.092 396.433,215.163 396.576,215.314C396.638,215.376 396.674,215.438 396.7,215.509C396.736,215.589 396.745,215.696 396.745,215.812C396.745,215.91 396.727,216.007 396.683,216.096C396.602,216.265 396.425,216.487 395.856,216.487L394.184,216.487ZM394.184,219.128L394.184,217.723L396.007,217.723C396.38,217.723 396.656,217.803 396.834,217.963C396.985,218.097 397.056,218.257 397.056,218.47C397.056,218.684 396.985,218.835 396.843,218.941C396.683,219.066 396.425,219.128 396.087,219.128L394.184,219.128Z" style="fill:rgb(245,130,31);fill-rule:nonzero;"/>
            </g>
        </g>
        <g transform="matrix(4.16667,0,0,4.16667,0,0)">
            <g transform="matrix(1,0,0,1,0,161.012)">
                <path d="M402.382,220.479C403.351,220.479 404.16,220.15 404.782,219.501C405.396,218.87 405.698,218.07 405.698,217.127C405.698,216.194 405.396,215.394 404.782,214.762C404.16,214.113 403.351,213.784 402.382,213.784C401.413,213.784 400.604,214.113 399.981,214.762C399.368,215.394 399.057,216.194 399.057,217.127C399.057,218.07 399.368,218.87 399.972,219.492C400.604,220.15 401.413,220.479 402.382,220.479ZM402.382,219.199C401.759,219.199 401.27,219.012 400.897,218.612C400.532,218.221 400.355,217.741 400.355,217.127C400.355,216.523 400.532,216.034 400.897,215.651C401.27,215.251 401.759,215.056 402.382,215.056C403.004,215.056 403.484,215.251 403.867,215.651C404.231,216.034 404.409,216.523 404.409,217.127C404.409,217.741 404.231,218.221 403.867,218.612C403.493,219.021 403.004,219.199 402.382,219.199" style="fill:rgb(245,130,31);fill-rule:nonzero;"/>
            </g>
        </g>
        <g transform="matrix(4.16667,0,0,4.16667,0,0)">
            <g transform="matrix(1,0,0,1,0,161.012)">
                <path d="M409.735,220.479C410.704,220.479 411.513,220.15 412.135,219.501C412.749,218.87 413.051,218.07 413.051,217.127C413.051,216.194 412.749,215.394 412.135,214.762C411.513,214.113 410.704,213.784 409.735,213.784C408.766,213.784 407.956,214.113 407.334,214.762C406.721,215.394 406.41,216.194 406.41,217.127C406.41,218.07 406.721,218.87 407.325,219.492C407.956,220.15 408.766,220.479 409.735,220.479ZM409.735,219.199C409.113,219.199 408.623,219.012 408.25,218.612C407.885,218.221 407.708,217.741 407.708,217.127C407.708,216.523 407.885,216.034 408.25,215.651C408.623,215.251 409.113,215.056 409.735,215.056C410.357,215.056 410.837,215.251 411.22,215.651C411.584,216.034 411.762,216.523 411.762,217.127C411.762,217.741 411.584,218.221 411.22,218.612C410.846,219.021 410.357,219.199 409.735,219.199" style="fill:rgb(245,130,31);fill-rule:nonzero;"/>
            </g>
        </g>
        <g transform="matrix(4.16667,0,0,4.16667,0,0)">
            <g transform="matrix(1,0,0,1,0,161.047)">
                <path d="M414.118,220.391L415.416,220.391L415.416,218.017L416.27,217.216L418.359,220.391L419.951,220.391L417.23,216.327L419.871,213.838L418.013,213.838L415.416,216.274L415.416,213.838L414.118,213.838L414.118,220.391Z" style="fill:rgb(245,130,31);fill-rule:nonzero;"/>
            </g>
        </g>
        <g transform="matrix(4.16667,0,0,4.16667,0,0)">
            <g transform="matrix(1,0,0,1,0,161.047)">
                <rect x="420.706" y="213.838" width="1.298" height="6.553" style="fill:rgb(245,130,31);"/>
            </g>
        </g>
        <g transform="matrix(4.16667,0,0,4.16667,0,0)">
            <g transform="matrix(1,0,0,1,0,161.047)">
                <path d="M423.427,220.391L424.725,220.391L424.725,216.025L427.917,220.391L429.171,220.391L429.171,213.838L427.873,213.838L427.873,218.186L424.672,213.838L423.427,213.838L423.427,220.391Z" style="fill:rgb(245,130,31);fill-rule:nonzero;"/>
            </g>
        </g>
        <g transform="matrix(4.16667,0,0,4.16667,0,0)">
            <g transform="matrix(1,0,0,1,0,161.012)">
                <path d="M433.563,220.479C434.532,220.479 435.342,220.15 435.964,219.492C436.462,218.968 436.782,218.328 436.853,217.59C436.871,217.412 436.88,217.27 436.88,217.127L436.88,216.95L436.862,216.612L433.305,216.612L433.305,217.865L435.484,217.865C435.395,218.15 435.253,218.39 435.048,218.612C434.675,219.021 434.186,219.199 433.563,219.199C432.941,219.199 432.452,219.012 432.078,218.612C431.714,218.221 431.536,217.741 431.536,217.127C431.536,216.523 431.714,216.034 432.078,215.651C432.452,215.251 432.941,215.056 433.563,215.056C434.186,215.056 434.675,215.242 435.048,215.651C435.128,215.74 435.208,215.838 435.27,215.945L435.368,216.087L436.773,216.087L436.568,215.642C436.417,215.322 436.213,215.02 435.964,214.762C435.342,214.113 434.532,213.784 433.563,213.784C432.594,213.784 431.785,214.113 431.163,214.762C430.549,215.394 430.238,216.194 430.238,217.127C430.238,218.07 430.549,218.87 431.154,219.492C431.785,220.15 432.594,220.479 433.563,220.479" style="fill:rgb(245,130,31);fill-rule:nonzero;"/>
            </g>
        </g>
    </g>
</svg>
